<?xml version="1.0" encoding="UTF-8" standalone="no"?>
<!-- Created with Inkscape (http://www.inkscape.org/) -->

<svg
   width="499.99997"
   height="400"
   viewBox="0 0 132.29165 105.83334"
   version="1.1"
   id="svg1"
   inkscape:version="1.3 (0e150ed6c4, 2023-07-21)"
   sodipodi:docname="Logosimbolo_iTalento.svg"
   inkscape:export-filename="Logosimbolo_iTalentoFinal.png"
   inkscape:export-xdpi="96"
   inkscape:export-ydpi="96"
   xmlns:inkscape="http://www.inkscape.org/namespaces/inkscape"
   xmlns:sodipodi="http://sodipodi.sourceforge.net/DTD/sodipodi-0.dtd"
   xmlns="http://www.w3.org/2000/svg"
   xmlns:svg="http://www.w3.org/2000/svg">
  <sodipodi:namedview
     id="namedview1"
     pagecolor="#5b5b5b"
     bordercolor="#ffffff"
     borderopacity="0.66666667"
     inkscape:showpageshadow="false"
     inkscape:pageopacity="0"
     inkscape:pagecheckerboard="false"
     inkscape:deskcolor="#505050"
     inkscape:document-units="px"
     inkscape:zoom="1.3843855"
     inkscape:cx="173.36212"
     inkscape:cy="261.84903"
     inkscape:window-width="1920"
     inkscape:window-height="1009"
     inkscape:window-x="-8"
     inkscape:window-y="-8"
     inkscape:window-maximized="1"
     inkscape:current-layer="layer1"
     showguides="true"
     inkscape:lockguides="false"
     showgrid="true"
     showborder="true"
     labelstyle="default"
     inkscape:clip-to-page="false">
    <inkscape:grid
       id="grid7"
       units="px"
       originx="0"
       originy="-49.999998"
       spacingx="1.3229167"
       spacingy="1.3229167"
       empcolor="#0099e5"
       empopacity="0.30196078"
       color="#0099e5"
       opacity="0.14901961"
       empspacing="5"
       dotted="false"
       gridanglex="30"
       gridanglez="30"
       visible="true" />
    <sodipodi:guide
       position="0,145.52083"
       orientation="0,500"
       id="guide7"
       inkscape:locked="false" />
    <sodipodi:guide
       position="132.29166,145.52083"
       orientation="500,0"
       id="guide8"
       inkscape:locked="false" />
    <sodipodi:guide
       position="132.29166,13.229166"
       orientation="0,-500"
       id="guide9"
       inkscape:locked="false" />
    <sodipodi:guide
       position="0,13.229166"
       orientation="-500,0"
       id="guide10"
       inkscape:locked="false" />
  </sodipodi:namedview>
  <defs
     id="defs1" />
  <g
     inkscape:label="Capa 1"
     inkscape:groupmode="layer"
     id="layer1"
     transform="translate(0,-13.229166)">
    <path
       id="rect10"
       style="opacity:1;mix-blend-mode:multiply;fill:#87ceeb;fill-opacity:1;stroke:none;stroke-width:0;stroke-linecap:round;stroke-dasharray:none;stroke-opacity:1;paint-order:stroke fill markers"
       d="M 13.229166,13.229166 C 5.9002158,13.229166 0,19.129382 0,26.458333 v 37.041666 c 15.076647,0.02135 27.256669,0.0053 42.333333,0 L 7.9374999,50.270833 H 68.791666 l 17.197916,5.291666 c 0,0 21.166668,1.322917 22.489588,1.322917 2.64582,0 17.49919,6.56239 17.49919,6.56239 5.92842,0.03317 6.3133,0.05219 6.3133,0.05219 V 26.458333 c 0,-7.328951 -5.90021,-13.229167 -13.22916,-13.229167 z m 74.083333,43.65625 c 0,0 7.937497,3.968751 13.229171,5.291667 5.29165,1.322915 22.48958,1.322916 22.48958,1.322916 0,0 -13.22917,-5.291666 -15.875,-5.291666 -1.32292,0 -19.843751,-1.322917 -19.843751,-1.322917 z m -65.980468,7.606771 c -12.0716037,0 -20.0091144,0.330729 -20.0091144,0.330729 10e-8,0 44.9791624,0.795324 44.9791664,1.322916 4e-6,0.527593 -44.9791664,1.322917 -44.9791664,1.322917 0,0 31.7500294,1.322914 64.8229154,-1.322917 C 49.609389,64.822917 33.403635,64.492187 21.332031,64.492187 Z m 6.936527,4.260205 C 18.95018,68.739304 7.7056098,68.739317 0,68.791666 v 37.041664 c 0,7.32895 5.9002158,13.22917 13.229166,13.22917 H 119.0625 c 7.32895,0 13.22916,-5.90022 13.22916,-13.22917 V 68.791666 H 119.0625 c -48.665299,2.574028 -39.001546,7.9375 -92.604167,7.9375 l 18.520833,-7.9375 c 0,0 -7.39223,-0.02619 -16.710608,-0.03927 z" />
  </g>
</svg>
